<svg width="115" height="28" viewBox="0 0 115 28" fill="none" xmlns="http://www.w3.org/2000/svg">
<path d="M7.668 16.368L7.74 19.752C7.74 21.576 7.284 23.076 6.372 24.252C5.46 25.452 3.876 26.592 1.62 27.672L0.504 26.052V25.692C2.16 24.804 3.336 23.928 4.032 23.064C4.728 22.2 5.076 21.108 5.076 19.788V16.656L4.932 3.264L0.504 3.3L0.216 3.048L0.396 0.923999H7.812L7.668 16.368ZM27.6685 21.768L27.4525 24H14.4925L14.6725 17.052L14.4925 0.923999H27.4885L27.6325 1.212L27.4165 3.444L21.9805 3.336L17.4085 3.408L17.3365 10.968L21.6565 11.04L25.4725 10.932L25.6885 11.184L25.4365 13.416L21.4045 13.344L17.3005 13.38L17.2645 16.8L17.3725 21.588L21.9445 21.624L27.4885 21.48L27.6685 21.768ZM34.7757 3.408L34.7037 11.436L38.5917 11.508L42.3357 11.4L42.5517 11.688L42.2997 13.884L38.3037 13.776L34.6677 13.812L34.6317 16.8L34.7757 24H31.8597L32.0397 17.052L31.8597 0.923999H44.1357L44.3517 1.212L44.0997 3.516L38.8077 3.336L34.7757 3.408ZM50.3851 3.408L50.3131 11.436L54.2011 11.508L57.9451 11.4L58.1611 11.688L57.9091 13.884L53.9131 13.776L50.2771 13.812L50.2411 16.8L50.3851 24H47.4691L47.6491 17.052L47.4691 0.923999H59.7451L59.9611 1.212L59.7091 3.516L54.4171 3.336L50.3851 3.408ZM76.2545 21.768L76.0385 24H63.0785L63.2585 17.052L63.0785 0.923999H76.0745L76.2185 1.212L76.0025 3.444L70.5665 3.336L65.9945 3.408L65.9225 10.968L70.2425 11.04L74.0585 10.932L74.2745 11.184L74.0225 13.416L69.9905 13.344L65.8865 13.38L65.8505 16.8L65.9585 21.588L70.5305 21.624L76.0745 21.48L76.2545 21.768ZM89.8417 14.676C91.4257 17.292 93.4177 20.172 95.8177 23.316L95.7817 23.676C94.9177 24.012 94.0297 24.228 93.1177 24.324L92.7217 24.072C90.7537 21.12 88.9897 18.24 87.4297 15.432H83.2177V16.8L83.3617 24H80.4457L80.6257 17.052L80.4457 0.923999L87.5017 0.887999C89.7577 0.887999 91.4977 1.464 92.7217 2.616C93.9697 3.744 94.5937 5.364 94.5937 7.476C94.5937 9.06 94.1737 10.488 93.3337 11.76C92.5177 13.008 91.3537 13.98 89.8417 14.676ZM83.2537 12.984L87.5737 13.092C90.2617 12.324 91.6057 10.536 91.6057 7.728C91.6057 6.264 91.2097 5.172 90.4177 4.452C89.6257 3.708 88.4377 3.312 86.8537 3.264L83.3617 3.372L83.2537 12.984ZM106.524 17.268L106.596 24H103.752L103.896 17.268L103.86 15.756L96.5517 0.923999H99.6477L100.116 2.22L105.156 12.588H105.408L110.952 2.292L111.492 0.923999H114.516L106.56 15.648L106.524 17.268Z" fill="black"/>
</svg>
